<?xml version="1.0" encoding="UTF-8" standalone="no"?>
<!-- Created with Inkscape (http://www.inkscape.org/) -->

<svg
   xmlns:dc="http://purl.org/dc/elements/1.1/"
   xmlns:cc="http://creativecommons.org/ns#"
   xmlns:rdf="http://www.w3.org/1999/02/22-rdf-syntax-ns#"
   xmlns:svg="http://www.w3.org/2000/svg"
   xmlns="http://www.w3.org/2000/svg"
   xmlns:sodipodi="http://sodipodi.sourceforge.net/DTD/sodipodi-0.dtd"
   xmlns:inkscape="http://www.inkscape.org/namespaces/inkscape"
   width="169.78928"
   height="130.86395"
   id="svg2"
   version="1.1"
   inkscape:version="0.48.1 r9760"
   sodipodi:docname="aberration-sketch.svg">
  <defs
     id="defs4">
    <marker
       inkscape:stockid="Arrow1Mend"
       orient="auto"
       refY="0"
       refX="0"
       id="Arrow1Mend"
       style="overflow:visible">
      <path
         id="path3866"
         d="M 0,0 5,-5 -12.5,0 5,5 0,0 z"
         style="fill-rule:evenodd;stroke:#000000;stroke-width:1pt;marker-start:none"
         transform="matrix(-0.4,0,0,-0.4,-4,0)"
         inkscape:connector-curvature="0" />
    </marker>
  </defs>
  <sodipodi:namedview
     id="base"
     pagecolor="#ffffff"
     bordercolor="#666666"
     borderopacity="1.0"
     inkscape:pageopacity="0.0"
     inkscape:pageshadow="2"
     inkscape:zoom="3.959798"
     inkscape:cx="21.175338"
     inkscape:cy="74.177957"
     inkscape:document-units="px"
     inkscape:current-layer="layer1"
     showgrid="false"
     units="mm"
     inkscape:window-width="1364"
     inkscape:window-height="751"
     inkscape:window-x="0"
     inkscape:window-y="15"
     inkscape:window-maximized="0"
     fit-margin-top="0"
     fit-margin-left="0"
     fit-margin-right="0"
     fit-margin-bottom="0" />
  <metadata
     id="metadata7">
    <rdf:RDF>
      <cc:Work
         rdf:about="">
        <dc:format>image/svg+xml</dc:format>
        <dc:type
           rdf:resource="http://purl.org/dc/dcmitype/StillImage" />
        <dc:title></dc:title>
      </cc:Work>
    </rdf:RDF>
  </metadata>
  <g
     inkscape:label="Layer 1"
     inkscape:groupmode="layer"
     id="layer1"
     transform="translate(-5.2109194,-876.98437)">
    <rect
       style="fill:#00bec5;fill-opacity:1;stroke:none"
       id="rect3797"
       width="9.0591888"
       height="61.124485"
       x="18.723352"
       y="916.0293" />
    <path
       style="fill:none;stroke:#000000;stroke-width:0.99999994;stroke-linecap:butt;stroke-linejoin:miter;stroke-miterlimit:4;stroke-opacity:1;stroke-dasharray:3.99999976, 1.99999987, 0.99999994, 1.99999987;stroke-dashoffset:0"
       d="m 7.5828918,946.41681 155.5973582,0"
       id="path2985"
       inkscape:connector-curvature="0" />
    <path
       style="fill:none;stroke:#000000;stroke-width:0.99999994px;stroke-linecap:butt;stroke-linejoin:miter;stroke-opacity:1"
       d="m 28.358612,914.98143 0,62.8709"
       id="path3755"
       inkscape:connector-curvature="0" />
    <path
       style="fill:none;stroke:#000000;stroke-width:0.99999994px;stroke-linecap:butt;stroke-linejoin:miter;stroke-opacity:1"
       d="m 11.802048,914.98143 0,62.8709"
       id="path3755-4"
       inkscape:connector-curvature="0" />
    <path
       style="fill:none;stroke:#000000;stroke-width:0.99999994px;stroke-linecap:butt;stroke-linejoin:miter;stroke-opacity:1"
       d="m 18.430953,914.98143 0,62.8709"
       id="path3755-4-7"
       inkscape:connector-curvature="0" />
    <path
       sodipodi:type="arc"
       style="fill:none;stroke:#000000;stroke-width:0.72390306;stroke-miterlimit:4;stroke-opacity:1;stroke-dasharray:none;stroke-dashoffset:0"
       id="path3795"
       sodipodi:cx="10.606602"
       sodipodi:cy="62.26049"
       sodipodi:rx="25.253813"
       sodipodi:ry="25.253813"
       d="m 22.811324,40.151673 c 12.210363,6.740482 16.644577,22.103177 9.904095,34.313539 -2.373968,4.300438 -5.950592,7.815176 -10.291806,10.113731"
       transform="matrix(1.3797137,0,0,1.3830891,-2.8793282,859.95579)"
       sodipodi:start="5.2167891"
       sodipodi:end="7.3670348"
       sodipodi:open="true" />
    <path
       style="fill:none;stroke:#000000;stroke-width:0.99999994px;stroke-linecap:butt;stroke-linejoin:miter;stroke-opacity:1"
       d="m 56.926379,914.98143 0,62.8709"
       id="path3755-4-8"
       inkscape:connector-curvature="0" />
    <path
       style="fill:none;stroke:#000000;stroke-width:0.99999994px;stroke-linecap:butt;stroke-linejoin:miter;stroke-opacity:1"
       d="m 104.64733,914.98143 0,62.8709"
       id="path3755-4-4"
       inkscape:connector-curvature="0" />
    <path
       style="fill:none;stroke:#000000;stroke-width:0.99999994px;stroke-linecap:butt;stroke-linejoin:miter;stroke-opacity:1"
       d="m 152.36828,914.98143 0,62.8709"
       id="path3755-4-5"
       inkscape:connector-curvature="0" />
    <path
       style="fill:none;stroke:#000000;stroke-width:0.99999994px;stroke-linecap:butt;stroke-linejoin:miter;stroke-opacity:1"
       d="m 18.374921,945.71832 10.10448,-13.62203 12.891922,-3.84211 63.065887,3.84211 47.73496,23.05266"
       id="path3852"
       inkscape:connector-curvature="0" />
    <path
       style="fill:none;stroke:#000000;stroke-width:0.99999994px;stroke-linecap:butt;stroke-linejoin:miter;stroke-opacity:1;marker-end:url(#Arrow1Mend)"
       d="m 59.838131,929.30203 28.222857,1.74641"
       id="path4298"
       inkscape:connector-curvature="0"
       sodipodi:nodetypes="cc" />
    <g
       transform="matrix(0,-1.0622588,0.94139018,0,0,0)"
       style="font-size:12.602005px;font-style:normal;font-variant:normal;font-weight:normal;font-stretch:normal;line-height:125%;letter-spacing:0px;word-spacing:0px;fill:#000000;fill-opacity:1;stroke:none;font-family:Gentium;-inkscape-font-specification:Gentium"
       id="text4484">
      <path
         d="m -922.67452,18.788765 c -0.15999,0.09846 -0.30972,0.211274 -0.4492,0.338433 -0.13537,0.127178 -0.25434,0.268704 -0.35689,0.424579 -0.10256,0.151791 -0.18255,0.31793 -0.23998,0.498419 -0.0574,0.180506 -0.0861,0.377412 -0.0861,0.590719 -10e-6,0.237936 0.0123,0.432791 0.0369,0.584566 0.0287,0.151789 0.0574,0.295366 0.0861,0.430732 0.0328,0.131278 0.0615,0.272804 0.0861,0.42458 0.0287,0.151788 0.0431,0.346643 0.0431,0.584565 0,0.172299 -0.0267,0.342541 -0.08,0.510726 -0.0492,0.164094 -0.12102,0.319978 -0.21537,0.467653 -0.0943,0.143582 -0.21126,0.274853 -0.35074,0.393812 -0.13537,0.118969 -0.28921,0.215371 -0.4615,0.289207 0.20511,0.03692 0.3774,0.102559 0.51688,0.196906 0.14358,0.09025 0.25844,0.205114 0.34459,0.344586 0.0861,0.139479 0.14768,0.303567 0.1846,0.492266 0.041,0.184602 0.0615,0.389713 0.0615,0.615332 0,0.246135 -0.0144,0.455348 -0.0431,0.627639 -0.0246,0.172295 -0.0533,0.334332 -0.0861,0.486112 -0.0287,0.151784 -0.0574,0.303565 -0.0861,0.455346 -0.0246,0.151783 -0.0369,0.330229 -0.0369,0.535339 -10e-6,0.225622 0.0144,0.42458 0.0431,0.596873 0.0328,0.176395 0.0882,0.33433 0.16614,0.473806 0.082,0.143576 0.19075,0.274847 0.32612,0.393812 0.13948,0.123065 0.31792,0.244081 0.53534,0.363046 l -0.14152,0.375353 c -0.34459,-0.139477 -0.63995,-0.287157 -0.88608,-0.443039 -0.24614,-0.151784 -0.4492,-0.322025 -0.60918,-0.510726 -0.15589,-0.188703 -0.27075,-0.399967 -0.34459,-0.633792 -0.0738,-0.233827 -0.11076,-0.498419 -0.11076,-0.793779 0,-0.24203 0.0123,-0.440987 0.0369,-0.596872 0.0287,-0.159985 0.0574,-0.311767 0.0862,-0.455346 0.0328,-0.147678 0.0615,-0.303562 0.0861,-0.467653 0.0287,-0.168188 0.0431,-0.379452 0.0431,-0.633792 0,-0.332276 -0.0841,-0.582511 -0.25229,-0.750705 -0.16409,-0.17229 -0.39996,-0.258436 -0.70763,-0.25844 -0.0574,4e-6 -0.1005,4e-6 -0.12922,0 -0.0246,4e-6 -0.0472,0.0021 -0.0677,0.0062 -0.0205,3e-6 -0.0451,0.0041 -0.0738,0.01231 -0.0246,0.0041 -0.0677,0.01026 -0.12922,0.01846 l -0.10461,-0.326126 c 0.48406,-0.127165 0.84916,-0.317917 1.09529,-0.572259 0.24613,-0.254333 0.3692,-0.535334 0.3692,-0.843005 0,-0.164083 -0.006,-0.30561 -0.0185,-0.424579 -0.0123,-0.118959 -0.0287,-0.225616 -0.0492,-0.319973 -0.0164,-0.09845 -0.0369,-0.188696 -0.0615,-0.270746 -0.0205,-0.08614 -0.041,-0.176389 -0.0615,-0.270747 -0.0164,-0.09434 -0.0308,-0.201001 -0.0431,-0.319972 -0.0123,-0.12306 -0.0185,-0.268688 -0.0185,-0.436886 0,-0.274841 0.0451,-0.53328 0.13538,-0.775319 0.0943,-0.246125 0.22767,-0.471746 0.39996,-0.676866 0.17229,-0.209203 0.38151,-0.399956 0.62764,-0.572259 0.24613,-0.172283 0.52303,-0.328167 0.8307,-0.467652 l 0.15999,0.289206 0,0"
         id="path4575"
         inkscape:connector-curvature="0" />
    </g>
    <g
       transform="scale(-1.1762894,-0.85013092)"
       style="font-size:11.35258102px;font-style:normal;font-variant:normal;font-weight:normal;font-stretch:normal;line-height:125%;letter-spacing:0px;word-spacing:0px;fill:#000000;fill-opacity:1;stroke:none;font-family:Gentium;-inkscape-font-specification:Gentium"
       id="text4484-0">
      <path
         d="m -131.40472,-1124.0592 c -0.14413,0.089 -0.27901,0.1903 -0.40466,0.3048 -0.12195,0.1146 -0.22912,0.2421 -0.3215,0.3825 -0.0924,0.1368 -0.16446,0.2864 -0.21619,0.449 -0.0517,0.1626 -0.0776,0.34 -0.0776,0.5322 0,0.2143 0.0111,0.3899 0.0333,0.5266 0.0259,0.1367 0.0517,0.2661 0.0776,0.388 0.0296,0.1183 0.0554,0.2458 0.0776,0.3825 0.0259,0.1367 0.0388,0.3123 0.0388,0.5266 -1e-5,0.1552 -0.024,0.3086 -0.0721,0.4601 -0.0443,0.1478 -0.10902,0.2883 -0.19401,0.4213 -0.085,0.1293 -0.19032,0.2476 -0.31596,0.3548 -0.12196,0.1071 -0.26054,0.194 -0.41575,0.2605 0.18477,0.033 0.33999,0.092 0.46563,0.1774 0.12934,0.081 0.23282,0.1848 0.31043,0.3104 0.0776,0.1257 0.13303,0.2735 0.16629,0.4435 0.037,0.1663 0.0554,0.351 0.0554,0.5543 -1e-5,0.2217 -0.0129,0.4102 -0.0388,0.5654 -0.0222,0.1552 -0.048,0.3012 -0.0776,0.4379 -0.0259,0.1367 -0.0517,0.2735 -0.0776,0.4102 -0.0222,0.1367 -0.0333,0.2975 -0.0333,0.4823 0,0.2032 0.0129,0.3825 0.0388,0.5377 0.0296,0.1589 0.0795,0.3012 0.14966,0.4268 0.0739,0.1293 0.17184,0.2476 0.2938,0.3548 0.12564,0.1108 0.28639,0.2199 0.48226,0.327 l -0.1275,0.3382 c -0.31042,-0.1257 -0.5765,-0.2587 -0.79822,-0.3992 -0.22174,-0.1367 -0.40466,-0.29 -0.54879,-0.46 -0.14043,-0.17 -0.2439,-0.3604 -0.31042,-0.571 -0.0665,-0.2106 -0.0998,-0.449 -0.0998,-0.7151 0,-0.218 0.0111,-0.3972 0.0333,-0.5377 0.0259,-0.1441 0.0517,-0.2808 0.0776,-0.4102 0.0296,-0.133 0.0554,-0.2734 0.0776,-0.4213 0.0259,-0.1515 0.0388,-0.3418 0.0388,-0.5709 0,-0.2993 -0.0758,-0.5248 -0.22728,-0.6763 -0.14782,-0.1552 -0.36031,-0.2328 -0.63747,-0.2328 -0.0517,0 -0.0905,0 -0.11641,0 -0.0222,0 -0.0425,0 -0.061,0.01 -0.0185,0 -0.0407,0 -0.0665,0.011 -0.0222,0 -0.061,0.01 -0.11641,0.017 l -0.0942,-0.2938 c 0.43607,-0.1146 0.76497,-0.2864 0.9867,-0.5156 0.22173,-0.2291 0.3326,-0.4822 0.3326,-0.7594 0,-0.1478 -0.006,-0.2753 -0.0166,-0.3825 -0.0111,-0.1071 -0.0259,-0.2032 -0.0444,-0.2882 -0.0148,-0.089 -0.0333,-0.17 -0.0554,-0.2439 -0.0185,-0.078 -0.037,-0.1589 -0.0554,-0.2439 -0.0148,-0.085 -0.0277,-0.1811 -0.0388,-0.2883 -0.0111,-0.1108 -0.0166,-0.242 -0.0166,-0.3935 0,-0.2476 0.0406,-0.4805 0.12196,-0.6985 0.085,-0.2217 0.20509,-0.425 0.36031,-0.6098 0.15521,-0.1884 0.34368,-0.3603 0.56541,-0.5155 0.22173,-0.1552 0.47117,-0.2956 0.74834,-0.4213 l 0.14412,0.2606 0,0"
         id="path4578"
         inkscape:connector-curvature="0" />
    </g>
    <text
       xml:space="preserve"
       style="font-size:11.05120277px;font-style:normal;font-variant:normal;font-weight:normal;font-stretch:normal;line-height:125%;letter-spacing:0px;word-spacing:0px;fill:#000000;fill-opacity:1;stroke:none;font-family:Gentium;-inkscape-font-specification:Gentium"
       x="20.490522"
       y="993.75238"
       id="text4509"
       sodipodi:linespacing="125%"
       transform="scale(0.99877902,1.0012225)"><tspan
         sodipodi:role="line"
         id="tspan4511"
         x="20.490522"
         y="993.75238">$h$</tspan></text>
    <text
       xml:space="preserve"
       style="font-size:11.05120277px;font-style:normal;font-variant:normal;font-weight:normal;font-stretch:normal;line-height:125%;letter-spacing:0px;word-spacing:0px;fill:#000000;fill-opacity:1;stroke:none;font-family:Gentium;-inkscape-font-specification:Gentium"
       x="159.68417"
       y="953.63391"
       id="text4513"
       sodipodi:linespacing="125%"
       transform="scale(0.99877902,1.0012225)"><tspan
         sodipodi:role="line"
         id="tspan4515"
         x="159.68417"
         y="953.63391">$q$</tspan></text>
    <text
       xml:space="preserve"
       style="font-size:8px;font-style:normal;font-variant:normal;font-weight:normal;font-stretch:normal;line-height:125%;letter-spacing:0px;word-spacing:0px;fill:#000000;fill-opacity:1;stroke:none;font-family:Gentium;-inkscape-font-specification:Gentium"
       x="23.991121"
       y="896.04108"
       id="text4599"
       sodipodi:linespacing="125%"><tspan
         sodipodi:role="line"
         id="tspan4601"
         x="23.991121"
         y="896.04108">shifted focus</tspan></text>
    <text
       xml:space="preserve"
       style="font-size:8px;font-style:normal;font-variant:normal;font-weight:normal;font-stretch:normal;line-height:125%;letter-spacing:0px;word-spacing:0px;fill:#000000;fill-opacity:1;stroke:none;font-family:Gentium;-inkscape-font-specification:Gentium"
       x="41.416252"
       y="1005.8952"
       id="text4603"
       sodipodi:linespacing="125%"><tspan
         sodipodi:role="line"
         id="tspan4605"
         x="41.416252"
         y="1005.8952">gaussian sphere</tspan></text>
    <text
       xml:space="preserve"
       style="font-size:8px;font-style:normal;font-variant:normal;font-weight:normal;font-stretch:normal;line-height:125%;letter-spacing:0px;word-spacing:0px;fill:#000000;fill-opacity:1;stroke:none;font-family:Gentium;-inkscape-font-specification:Gentium"
       x="56.063469"
       y="987.20734"
       id="text4607"
       sodipodi:linespacing="125%"><tspan
         sodipodi:role="line"
         id="tspan4609"
         x="56.063469"
         y="987.20734">BFP</tspan></text>
    <text
       xml:space="preserve"
       style="font-size:8px;font-style:normal;font-variant:normal;font-weight:normal;font-stretch:normal;line-height:125%;letter-spacing:0px;word-spacing:0px;fill:#000000;fill-opacity:1;stroke:none;font-family:Gentium;-inkscape-font-specification:Gentium"
       x="97.479721"
       y="987.20734"
       id="text4611"
       sodipodi:linespacing="125%"><tspan
         sodipodi:role="line"
         id="tspan4613"
         x="97.479721"
         y="987.20734">tubelens</tspan></text>
    <text
       xml:space="preserve"
       style="font-size:8px;font-style:normal;font-variant:normal;font-weight:normal;font-stretch:normal;line-height:125%;letter-spacing:0px;word-spacing:0px;fill:#000000;fill-opacity:1;stroke:none;font-family:Gentium;-inkscape-font-specification:Gentium"
       x="139.40106"
       y="909.9306"
       id="text4615"
       sodipodi:linespacing="125%"><tspan
         sodipodi:role="line"
         id="tspan4617"
         x="139.40106"
         y="909.9306">image</tspan></text>
    <text
       xml:space="preserve"
       style="font-size:8px;font-style:normal;font-variant:normal;font-weight:normal;font-stretch:normal;line-height:125%;letter-spacing:0px;word-spacing:0px;fill:#000000;fill-opacity:1;stroke:none;font-family:Gentium;-inkscape-font-specification:Gentium"
       x="5.0507631"
       y="883.03906"
       id="text4619"
       sodipodi:linespacing="125%"><tspan
         sodipodi:role="line"
         id="tspan4621"
         x="5.0507631"
         y="883.03906">unaberrated focus</tspan></text>
    <path
       style="fill:none;stroke:#000000;stroke-width:0.99999994px;stroke-linecap:butt;stroke-linejoin:miter;stroke-opacity:1"
       d="m 18.687822,912.96113 5.555839,-15.40484"
       id="path4623"
       inkscape:connector-curvature="0" />
    <path
       style="fill:none;stroke:#000000;stroke-width:1px;stroke-linecap:butt;stroke-linejoin:miter;stroke-opacity:1"
       d="m 11.869293,913.46626 2.198875,-27.24873"
       id="path4627"
       inkscape:connector-curvature="0" />
    <path
       style="fill:none;stroke:#000000;stroke-width:1px;stroke-linecap:butt;stroke-linejoin:miter;stroke-opacity:1"
       d="M 37.88072,97.363293 47.982246,122.61711"
       id="path4629"
       inkscape:connector-curvature="0"
       transform="translate(0,875.19684)" />
    <g
       transform="matrix(-1.129979,0,0,-1.4213388,-89.825117,-652.46144)"
       style="font-size:11.35258102px;font-style:normal;font-variant:normal;font-weight:normal;font-stretch:normal;line-height:125%;letter-spacing:0px;word-spacing:0px;fill:#000000;fill-opacity:1;stroke:none;font-family:Gentium;-inkscape-font-specification:Gentium"
       id="text4484-0-4">
      <path
         d="m -131.40472,-1124.0592 c -0.14413,0.089 -0.27901,0.1903 -0.40466,0.3048 -0.12195,0.1146 -0.22912,0.2421 -0.3215,0.3825 -0.0924,0.1368 -0.16446,0.2864 -0.21619,0.449 -0.0517,0.1626 -0.0776,0.34 -0.0776,0.5322 0,0.2143 0.0111,0.3899 0.0333,0.5266 0.0259,0.1367 0.0517,0.2661 0.0776,0.388 0.0296,0.1183 0.0554,0.2458 0.0776,0.3825 0.0259,0.1367 0.0388,0.3123 0.0388,0.5266 -1e-5,0.1552 -0.024,0.3086 -0.0721,0.4601 -0.0443,0.1478 -0.10902,0.2883 -0.19401,0.4213 -0.085,0.1293 -0.19032,0.2476 -0.31596,0.3548 -0.12196,0.1071 -0.26054,0.194 -0.41575,0.2605 0.18477,0.033 0.33999,0.092 0.46563,0.1774 0.12934,0.081 0.23282,0.1848 0.31043,0.3104 0.0776,0.1257 0.13303,0.2735 0.16629,0.4435 0.037,0.1663 0.0554,0.351 0.0554,0.5543 -1e-5,0.2217 -0.0129,0.4102 -0.0388,0.5654 -0.0222,0.1552 -0.048,0.3012 -0.0776,0.4379 -0.0259,0.1367 -0.0517,0.2735 -0.0776,0.4102 -0.0222,0.1367 -0.0333,0.2975 -0.0333,0.4823 0,0.2032 0.0129,0.3825 0.0388,0.5377 0.0296,0.1589 0.0795,0.3012 0.14966,0.4268 0.0739,0.1293 0.17184,0.2476 0.2938,0.3548 0.12564,0.1108 0.28639,0.2199 0.48226,0.327 l -0.1275,0.3382 c -0.31042,-0.1257 -0.5765,-0.2587 -0.79822,-0.3992 -0.22174,-0.1367 -0.40466,-0.29 -0.54879,-0.46 -0.14043,-0.17 -0.2439,-0.3604 -0.31042,-0.571 -0.0665,-0.2106 -0.0998,-0.449 -0.0998,-0.7151 0,-0.218 0.0111,-0.3972 0.0333,-0.5377 0.0259,-0.1441 0.0517,-0.2808 0.0776,-0.4102 0.0296,-0.133 0.0554,-0.2734 0.0776,-0.4213 0.0259,-0.1515 0.0388,-0.3418 0.0388,-0.5709 0,-0.2993 -0.0758,-0.5248 -0.22728,-0.6763 -0.14782,-0.1552 -0.36031,-0.2328 -0.63747,-0.2328 -0.0517,0 -0.0905,0 -0.11641,0 -0.0222,0 -0.0425,0 -0.061,0.01 -0.0185,0 -0.0407,0 -0.0665,0.011 -0.0222,0 -0.061,0.01 -0.11641,0.017 l -0.0942,-0.2938 c 0.43607,-0.1146 0.76497,-0.2864 0.9867,-0.5156 0.22173,-0.2291 0.3326,-0.4822 0.3326,-0.7594 0,-0.1478 -0.006,-0.2753 -0.0166,-0.3825 -0.0111,-0.1071 -0.0259,-0.2032 -0.0444,-0.2882 -0.0148,-0.089 -0.0333,-0.17 -0.0554,-0.2439 -0.0185,-0.078 -0.037,-0.1589 -0.0554,-0.2439 -0.0148,-0.085 -0.0277,-0.1811 -0.0388,-0.2883 -0.0111,-0.1108 -0.0166,-0.242 -0.0166,-0.3935 0,-0.2476 0.0406,-0.4805 0.12196,-0.6985 0.085,-0.2217 0.20509,-0.425 0.36031,-0.6098 0.15521,-0.1884 0.34368,-0.3603 0.56541,-0.5155 0.22173,-0.1552 0.47117,-0.2956 0.74834,-0.4213 l 0.14412,0.2606 0,0"
         id="path4578-7"
         inkscape:connector-curvature="0" />
    </g>
    <text
       xml:space="preserve"
       style="font-size:11.05120277px;font-style:normal;font-variant:normal;font-weight:normal;font-stretch:normal;line-height:125%;letter-spacing:0px;word-spacing:0px;fill:#000000;fill-opacity:1;stroke:none;font-family:Gentium;-inkscape-font-specification:Gentium"
       x="63.100677"
       y="940.23737"
       id="text4509-8"
       sodipodi:linespacing="125%"
       transform="scale(0.998779,1.0012225)"><tspan
         sodipodi:role="line"
         id="tspan4511-4"
         x="63.100677"
         y="940.23737">$r$</tspan></text>
    <text
       xml:space="preserve"
       style="font-size:8px;font-style:normal;font-variant:normal;font-weight:normal;font-stretch:normal;line-height:125%;letter-spacing:0px;word-spacing:0px;fill:#000000;fill-opacity:1;stroke:none;font-family:Gentium;-inkscape-font-specification:Gentium"
       x="29.959658"
       y="908.60083"
       id="text3062"
       sodipodi:linespacing="125%"><tspan
         sodipodi:role="line"
         id="tspan3064"
         x="29.959658"
         y="908.60083">$n_e$</tspan></text>
    <text
       xml:space="preserve"
       style="font-size:8px;font-style:normal;font-variant:normal;font-weight:normal;font-stretch:normal;line-height:125%;letter-spacing:0px;word-spacing:0px;fill:#000000;fill-opacity:1;stroke:none;font-family:Gentium;-inkscape-font-specification:Gentium"
       x="31.727423"
       y="956.33057"
       id="text3066"
       sodipodi:linespacing="125%"><tspan
         sodipodi:role="line"
         id="tspan3068"
         x="31.727423"
         y="956.33057">$n$</tspan></text>
    <path
       style="fill:none;stroke:#000000;stroke-width:1px;stroke-linecap:butt;stroke-linejoin:miter;stroke-opacity:1"
       d="m 22.728432,24.545397 -5.808377,7.323606"
       id="path3089"
       inkscape:connector-curvature="0"
       transform="translate(6.2210717,882.54022)" />
  </g>
  <g
     inkscape:groupmode="layer"
     id="layer2"
     inkscape:label="draft"
     style="display:none"
     transform="translate(-5.2109194,-1.7875327)">
    <path
       transform="translate(-32.930207,-0.25253778)"
       sodipodi:type="arc"
       style="fill:none;stroke:#000000;stroke-opacity:1"
       id="path3831"
       sodipodi:cx="110.86424"
       sodipodi:cy="62.765568"
       sodipodi:rx="33.587574"
       sodipodi:ry="33.587574"
       d="m 144.45182,62.765568 c 0,18.549905 -15.03767,33.587574 -33.58758,33.587574 -18.549902,0 -33.587571,-15.037669 -33.587571,-33.587574 0,-18.549905 15.037669,-33.587574 33.587571,-33.587574 18.54991,0 33.58758,15.037669 33.58758,33.587574 z" />
  </g>
</svg>
