<?xml version="1.0" encoding="UTF-8" standalone="no"?>
<!-- Created with Inkscape (http://www.inkscape.org/) -->

<svg
   xmlns:dc="http://purl.org/dc/elements/1.1/"
   xmlns:cc="http://creativecommons.org/ns#"
   xmlns:rdf="http://www.w3.org/1999/02/22-rdf-syntax-ns#"
   xmlns:svg="http://www.w3.org/2000/svg"
   xmlns="http://www.w3.org/2000/svg"
   xmlns:sodipodi="http://sodipodi.sourceforge.net/DTD/sodipodi-0.dtd"
   xmlns:inkscape="http://www.inkscape.org/namespaces/inkscape"
   width="201.48677"
   height="139.04352"
   id="svg2"
   version="1.1"
   inkscape:version="0.48.1 r9760"
   sodipodi:docname="plane-intersection.svg">
  <defs
     id="defs4">
    <marker
       inkscape:stockid="Arrow1Mend"
       orient="auto"
       refY="0"
       refX="0"
       id="Arrow1Mend"
       style="overflow:visible">
      <path
         id="path3775"
         d="M 0,0 5,-5 -12.5,0 5,5 0,0 z"
         style="fill-rule:evenodd;stroke:#000000;stroke-width:1pt;marker-start:none"
         transform="matrix(-0.4,0,0,-0.4,-4,0)"
         inkscape:connector-curvature="0" />
    </marker>
  </defs>
  <sodipodi:namedview
     id="base"
     pagecolor="#ffffff"
     bordercolor="#666666"
     borderopacity="1.0"
     inkscape:pageopacity="0.0"
     inkscape:pageshadow="2"
     inkscape:zoom="1.979899"
     inkscape:cx="126.38496"
     inkscape:cy="90.822686"
     inkscape:document-units="px"
     inkscape:current-layer="layer1"
     showgrid="false"
     inkscape:window-width="749"
     inkscape:window-height="751"
     inkscape:window-x="0"
     inkscape:window-y="15"
     inkscape:window-maximized="0"
     fit-margin-top="0"
     fit-margin-left="0"
     fit-margin-right="0"
     fit-margin-bottom="0" />
  <metadata
     id="metadata7">
    <rdf:RDF>
      <cc:Work
         rdf:about="">
        <dc:format>image/svg+xml</dc:format>
        <dc:type
           rdf:resource="http://purl.org/dc/dcmitype/StillImage" />
        <dc:title></dc:title>
      </cc:Work>
    </rdf:RDF>
  </metadata>
  <g
     inkscape:label="Layer 1"
     inkscape:groupmode="layer"
     id="layer1"
     transform="translate(-138.96668,-23.288811)">
    <path
       style="fill:none;stroke:#000000;stroke-width:1px;stroke-linecap:butt;stroke-linejoin:miter;stroke-opacity:1"
       d="m 222.53737,23.788811 0,131.780839"
       id="path2989"
       inkscape:connector-curvature="0" />
    <path
       style="fill:none;stroke:#000000;stroke-width:0.99999994;stroke-linecap:butt;stroke-linejoin:miter;stroke-miterlimit:4;stroke-opacity:1;stroke-dasharray:3.99999991, 1.99999996, 0.99999997, 1.99999996;stroke-dashoffset:0"
       d="m 147.90188,80.446951 150.80414,0"
       id="path2991"
       inkscape:connector-curvature="0" />
    <path
       style="fill:none;stroke:#000000;stroke-width:0.99999994px;stroke-linecap:butt;stroke-linejoin:miter;stroke-opacity:1;marker-end:url(#Arrow1Mend)"
       d="M 139.46668,124.0076 262.04544,59.876639 m 3.22577,-1.613353 29.03182,-15.730232"
       id="path3761"
       inkscape:connector-curvature="0"
       sodipodi:nodetypes="cccc" />
    <g
       id="g4225"
       transform="matrix(1.5966683,0,0,1.5971421,-167.78669,-105.95293)">
      <path
         inkscape:connector-curvature="0"
         id="path4207"
         d="m 215.41503,156.60941 4.79823,6.06092"
         style="fill:none;stroke:#000000;stroke-width:0.62621123px;stroke-linecap:butt;stroke-linejoin:miter;stroke-opacity:1" />
      <path
         inkscape:connector-curvature="0"
         id="path4209"
         d="m 214.40488,162.67033 6.06091,-5.55584"
         style="fill:none;stroke:#000000;stroke-width:0.62621123px;stroke-linecap:butt;stroke-linejoin:miter;stroke-opacity:1" />
    </g>
    <path
       style="fill:none;stroke:#000000;stroke-width:0.60000002;stroke-linecap:butt;stroke-linejoin:miter;stroke-miterlimit:4;stroke-opacity:1;stroke-dasharray:0.59999999, 0.59999999;stroke-dashoffset:0"
       d="m 220.51385,149.01462 -36.28976,0"
       id="path4211"
       inkscape:connector-curvature="0" />
    <text
       xml:space="preserve"
       style="font-size:9.58143139px;font-style:normal;font-variant:normal;font-weight:normal;font-stretch:normal;line-height:125%;letter-spacing:0px;word-spacing:0px;fill:#000000;fill-opacity:1;stroke:none;font-family:Gentium;-inkscape-font-specification:Gentium"
       x="241.51707"
       y="160.28436"
       id="text4213"
       sodipodi:linespacing="125%"
       transform="scale(0.99985167,1.0001484)"><tspan
         sodipodi:role="line"
         id="tspan4215"
         x="241.51707"
         y="160.28436"></tspan></text>
    <text
       xml:space="preserve"
       style="font-size:9.58143139px;font-style:normal;font-variant:normal;font-weight:normal;font-stretch:normal;line-height:125%;letter-spacing:0px;word-spacing:0px;fill:#000000;fill-opacity:1;stroke:none;font-family:Gentium;-inkscape-font-specification:Gentium"
       x="198.36617"
       y="161.4942"
       id="text4221"
       sodipodi:linespacing="125%"
       transform="scale(0.99985167,1.0001484)"><tspan
         sodipodi:role="line"
         id="tspan4223"
         x="198.36617"
         y="161.4942">$h$</tspan></text>
    <path
       style="fill:none;stroke:#000000;stroke-width:0.99999994px;stroke-linecap:butt;stroke-linejoin:miter;stroke-opacity:1;marker-end:url(#Arrow1Mend)"
       d="M 179.10841,144.91205 163.65986,115.53747"
       id="path4229"
       inkscape:connector-curvature="0"
       sodipodi:nodetypes="cc" />
    <text
       xml:space="preserve"
       style="font-size:9.58143139px;font-style:normal;font-variant:normal;font-weight:normal;font-stretch:normal;line-height:125%;letter-spacing:0px;word-spacing:0px;fill:#000000;fill-opacity:1;stroke:none;font-family:Gentium;-inkscape-font-specification:Gentium"
       x="152.99513"
       y="135.58618"
       id="text4413"
       sodipodi:linespacing="125%"
       transform="scale(0.99985165,1.0001484)"><tspan
         sodipodi:role="line"
         id="tspan4415"
         x="152.99513"
         y="135.58618">$\s$</tspan></text>
    <text
       xml:space="preserve"
       style="font-size:9.58143139px;font-style:normal;font-variant:normal;font-weight:normal;font-stretch:normal;line-height:125%;letter-spacing:0px;word-spacing:0px;fill:#000000;fill-opacity:1;stroke:none;font-family:Gentium;-inkscape-font-specification:Gentium"
       x="269.34335"
       y="34.057884"
       id="text4417"
       sodipodi:linespacing="125%"
       transform="scale(0.99985167,1.0001484)"><tspan
         sodipodi:role="line"
         id="tspan4419"
         x="269.34335"
         y="34.057884">$\hd$</tspan></text>
    <path
       style="fill:none;stroke:#000000;stroke-width:0.49999997;stroke-linecap:butt;stroke-linejoin:miter;stroke-miterlimit:4;stroke-opacity:1;stroke-dasharray:0.49999999, 0.49999999;stroke-dashoffset:0"
       d="m 265.67443,60.683324 0,16.133578"
       id="path4421"
       inkscape:connector-curvature="0"
       sodipodi:nodetypes="cc" />
    <path
       style="fill:none;stroke:#000000;stroke-width:0.49999997;stroke-linecap:butt;stroke-linejoin:miter;stroke-miterlimit:4;stroke-opacity:1;stroke-dasharray:0.49999999, 0.49999999;stroke-dashoffset:0"
       d="m 296.72233,44.146412 0,33.477159"
       id="path4423"
       inkscape:connector-curvature="0" />
    <g
       transform="matrix(0,-1.3235491,1.9267182,0,-83.110559,-107.16295)"
       style="font-size:17.50897217px;font-style:normal;font-variant:normal;font-weight:normal;font-stretch:normal;line-height:125%;letter-spacing:0px;word-spacing:0px;fill:#000000;fill-opacity:1;stroke:none;font-family:Gentium;-inkscape-font-specification:Gentium"
       id="text4425">
      <path
         d="m -143.99461,181.06064 c -0.22229,0.1368 -0.43032,0.29354 -0.6241,0.47021 -0.18809,0.1767 -0.35337,0.37333 -0.49586,0.5899 -0.14249,0.2109 -0.25363,0.44173 -0.33342,0.6925 -0.0798,0.25079 -0.11969,0.52437 -0.11969,0.82073 0,0.33058 0.0171,0.60131 0.0513,0.81218 0.0399,0.2109 0.0798,0.41038 0.11969,0.59846 0.0456,0.18239 0.0855,0.37902 0.11969,0.5899 0.0399,0.21089 0.0598,0.48162 0.0598,0.81218 0,0.23939 -0.037,0.47592 -0.11114,0.70959 -0.0684,0.22799 -0.16814,0.44457 -0.29923,0.64975 -0.13109,0.19949 -0.29353,0.38188 -0.48731,0.54716 -0.18808,0.16529 -0.40182,0.29923 -0.64119,0.40181 0.28497,0.0513 0.52435,0.1425 0.71814,0.27358 0.19948,0.1254 0.35906,0.28498 0.47876,0.47876 0.11969,0.19379 0.20518,0.42177 0.25648,0.68395 0.057,0.25648 0.0855,0.54146 0.0855,0.85493 0,0.34197 -0.0199,0.63265 -0.0598,0.87202 -0.0342,0.23939 -0.0741,0.46452 -0.11969,0.6754 -0.0399,0.21088 -0.0798,0.42177 -0.11969,0.63265 -0.0342,0.21088 -0.0513,0.45881 -0.0513,0.74379 0,0.31347 0.0199,0.5899 0.0598,0.82928 0.0456,0.24508 0.12254,0.46451 0.23084,0.6583 0.11398,0.19948 0.26502,0.38186 0.45311,0.54715 0.19378,0.17099 0.44171,0.33912 0.74379,0.50441 l -0.19664,0.52151 c -0.47876,-0.19379 -0.88913,-0.39897 -1.2311,-0.61555 -0.34197,-0.21089 -0.6241,-0.44742 -0.84638,-0.70959 -0.21658,-0.26218 -0.37617,-0.55571 -0.47876,-0.88058 -0.10259,-0.32488 -0.15389,-0.6925 -0.15388,-1.10286 -1e-5,-0.33627 0.0171,-0.6127 0.0513,-0.82928 0.0399,-0.22228 0.0798,-0.43317 0.11969,-0.63265 0.0456,-0.20518 0.0855,-0.42177 0.11969,-0.64975 0.0399,-0.23368 0.0598,-0.5272 0.0599,-0.88058 -1e-5,-0.46166 -0.11685,-0.80933 -0.35052,-1.04301 -0.22799,-0.23938 -0.55571,-0.35907 -0.98317,-0.35907 -0.0798,0 -0.13964,0 -0.17954,0 -0.0342,0 -0.0656,0.003 -0.094,0.009 -0.0285,0 -0.0627,0.006 -0.10259,0.0171 -0.0342,0.006 -0.094,0.0143 -0.17954,0.0256 l -0.14534,-0.45311 c 0.67255,-0.17668 1.1798,-0.44171 1.52178,-0.79509 0.34197,-0.35336 0.51295,-0.74378 0.51296,-1.17125 -1e-5,-0.22797 -0.009,-0.42461 -0.0257,-0.5899 -0.0171,-0.16528 -0.0399,-0.31347 -0.0684,-0.44457 -0.0228,-0.13678 -0.0513,-0.26217 -0.0855,-0.37617 -0.0285,-0.11968 -0.057,-0.24507 -0.0855,-0.37617 -0.0228,-0.13108 -0.0428,-0.27926 -0.0599,-0.44456 -0.0171,-0.17098 -0.0257,-0.37331 -0.0256,-0.607 -1e-5,-0.38186 0.0627,-0.74093 0.18808,-1.07721 0.13109,-0.34196 0.31632,-0.65544 0.5557,-0.94042 0.23938,-0.29067 0.53006,-0.5557 0.87203,-0.79509 0.34197,-0.23937 0.72669,-0.45595 1.15416,-0.64975 l 0.22228,0.40182 0,0"
         id="path4430"
         inkscape:connector-curvature="0" />
    </g>
    <text
       xml:space="preserve"
       style="font-size:9.58143139px;font-style:normal;font-variant:normal;font-weight:normal;font-stretch:normal;line-height:125%;letter-spacing:0px;word-spacing:0px;fill:#000000;fill-opacity:1;stroke:none;font-family:Gentium;-inkscape-font-specification:Gentium"
       x="273.89816"
       y="103.42556"
       id="text4432"
       sodipodi:linespacing="125%"
       transform="scale(0.99985163,1.0001484)"><tspan
         sodipodi:role="line"
         id="tspan4434"
         x="273.89816"
         y="103.42556">$\hd\n$</tspan></text>
    <path
       style="fill:none;stroke:#000000;stroke-width:0.99999994px;stroke-linecap:butt;stroke-linejoin:miter;stroke-opacity:1;marker-end:url(#Arrow1Mend)"
       d="m 303.83725,80.008408 35.3662,0.07043"
       id="path4436"
       inkscape:connector-curvature="0" />
    <text
       xml:space="preserve"
       style="font-size:9.58143139px;font-style:normal;font-variant:normal;font-weight:normal;font-stretch:normal;line-height:125%;letter-spacing:0px;word-spacing:0px;fill:#000000;fill-opacity:1;stroke:none;font-family:Gentium;-inkscape-font-specification:Gentium"
       x="317.73691"
       y="94.549789"
       id="text4620"
       sodipodi:linespacing="125%"
       transform="scale(0.99985167,1.0001484)"><tspan
         sodipodi:role="line"
         id="tspan4622"
         x="317.73691"
         y="94.549789">$\n$</tspan></text>
    <path
       style="fill:none;stroke:#000000;stroke-width:0.60000002;stroke-linecap:butt;stroke-linejoin:miter;stroke-miterlimit:4;stroke-opacity:1;stroke-dasharray:0.59999999, 0.59999999;stroke-dashoffset:0"
       d="m 179.38543,140.14117 0,-56.146056"
       id="path4624"
       inkscape:connector-curvature="0" />
    <path
       style="fill:none;stroke:#000000;stroke-width:0.60000002;stroke-linecap:butt;stroke-linejoin:miter;stroke-miterlimit:4;stroke-opacity:1;stroke-dasharray:0.59999999, 0.59999999;stroke-dashoffset:0"
       d="m 162.45021,108.27736 0,-23.393676"
       id="path4626"
       inkscape:connector-curvature="0" />
    <path
       style="font-size:17.50897217px;font-style:normal;font-variant:normal;font-weight:normal;font-stretch:normal;line-height:125%;letter-spacing:0px;word-spacing:0px;fill:#000000;fill-opacity:1;stroke:none;font-family:Gentium;-inkscape-font-specification:Gentium"
       d="m 162.90277,77.418295 c 0.14083,-0.268064 0.30224,-0.518959 0.48413,-0.752653 0.18194,-0.226826 0.38441,-0.426166 0.60739,-0.598002 0.21716,-0.171837 0.45482,-0.305869 0.71304,-0.402113 0.25823,-0.09615 0.53991,-0.144381 0.84505,-0.144381 0.34038,0 0.61912,0.02076 0.83624,0.06197 0.21716,0.04823 0.42256,0.09615 0.6162,0.144382 0.18782,0.0551 0.39026,0.103015 0.60739,0.144381 0.21715,0.04823 0.49591,0.07219 0.83626,0.07219 0.24649,0 0.49003,-0.04472 0.73063,-0.13416 0.23474,-0.08241 0.45775,-0.202773 0.669,-0.360858 0.20542,-0.158117 0.3932,-0.353991 0.56337,-0.587701 0.17019,-0.226826 0.30811,-0.484573 0.41373,-0.773256 0.0529,0.343673 0.14674,0.632357 0.28169,0.866066 0.12901,0.240562 0.29343,0.433002 0.49295,0.577367 0.19954,0.144382 0.43426,0.247445 0.70423,0.309319 0.26409,0.06868 0.55751,0.103175 0.88026,0.103175 0.35211,0 0.65141,-0.02396 0.89787,-0.07219 0.24648,-0.04121 0.47828,-0.08928 0.69541,-0.144381 0.21713,-0.04823 0.43428,-0.09615 0.65141,-0.144382 0.21713,-0.04121 0.47241,-0.06197 0.76583,-0.06197 0.32276,0 0.60738,0.02396 0.85388,0.07219 0.25232,0.0551 0.47826,0.147735 0.6778,0.278398 0.20538,0.137354 0.39318,0.319604 0.56337,0.546446 0.17605,0.233694 0.34916,0.532711 0.51935,0.897003 l 0.53697,-0.237144 c -0.19953,-0.577383 -0.41081,-1.072289 -0.6338,-1.484703 -0.21714,-0.412398 -0.46067,-0.752654 -0.73062,-1.020718 -0.26996,-0.261197 -0.57218,-0.453652 -0.90668,-0.577383 -0.3345,-0.123619 -0.71302,-0.185588 -1.13555,-0.185572 -0.34624,-1.6e-5 -0.63084,0.0206 -0.85387,0.06197 -0.22885,0.04823 -0.44599,0.09615 -0.65139,0.144382 -0.21125,0.0551 -0.43426,0.103016 -0.669,0.144382 -0.24061,0.04823 -0.54284,0.07219 -0.90669,0.07219 -0.47536,-1.6e-5 -0.83331,-0.140868 -1.07393,-0.422732 -0.24646,-0.274948 -0.36969,-0.670177 -0.36969,-1.185686 0,-0.09615 0,-0.168387 0,-0.216525 0,-0.04121 0.003,-0.07922 0.01,-0.113397 0,-0.03434 0.006,-0.07555 0.0176,-0.123619 0.006,-0.04121 0.0144,-0.113397 0.0263,-0.216508 l -0.46653,-0.175287 c -0.18191,0.811077 -0.45479,1.422814 -0.81866,1.835244 -0.36383,0.412398 -0.76582,0.618605 -1.20596,0.618621 -0.23473,-1.6e-5 -0.4372,-0.0096 -0.60739,-0.03098 -0.17017,-0.02076 -0.32277,-0.04823 -0.45775,-0.08241 -0.14066,-0.02747 -0.26993,-0.06197 -0.3873,-0.103175 -0.12326,-0.03434 -0.25234,-0.06884 -0.38734,-0.103175 -0.13492,-0.02747 -0.28753,-0.05159 -0.45771,-0.07219 -0.17607,-0.0206 -0.38439,-0.03098 -0.625,-0.03082 -0.39318,0 -0.76289,0.07555 -1.10915,0.226826 -0.35209,0.158117 -0.67488,0.381477 -0.9683,0.670177 -0.29927,0.288683 -0.57216,0.63924 -0.81866,1.051654 -0.24646,0.412414 -0.46945,0.876368 -0.669,1.391909 l 0.41375,0.268049 0,0"
       id="path4430-4"
       inkscape:connector-curvature="0" />
    <text
       xml:space="preserve"
       style="font-size:9.58143139px;font-style:normal;font-variant:normal;font-weight:normal;font-stretch:normal;line-height:125%;letter-spacing:0px;word-spacing:0px;fill:#000000;fill-opacity:1;stroke:none;font-family:Gentium;-inkscape-font-specification:Gentium"
       x="165.11035"
       y="65.513672"
       id="text4646"
       sodipodi:linespacing="125%"
       transform="scale(0.99985164,1.0001484)"><tspan
         sodipodi:role="line"
         id="tspan4648"
         x="165.11035"
         y="65.513672">$\s\n$</tspan></text>
  </g>
</svg>
